<svg width="20" height="20" viewBox="0 0 20 20" fill="none" xmlns="http://www.w3.org/2000/svg">
<path d="M2.5 18.3333H17.5" stroke="#4B5563" stroke-width="1.5" stroke-linecap="round" stroke-linejoin="round"/>
<path d="M4.66665 6.98334H3.33333C2.875 6.98334 2.5 7.35834 2.5 7.81667V15C2.5 15.4583 2.875 15.8333 3.33333 15.8333H4.66665C5.12498 15.8333 5.49998 15.4583 5.49998 15V7.81667C5.49998 7.35834 5.12498 6.98334 4.66665 6.98334Z" stroke="#4B5563" stroke-width="1.5" stroke-linecap="round" stroke-linejoin="round"/>
<path d="M10.6666 4.32501H9.33333C8.875 4.32501 8.5 4.70001 8.5 5.15835V15C8.5 15.4583 8.875 15.8333 9.33333 15.8333H10.6666C11.125 15.8333 11.5 15.4583 11.5 15V5.15835C11.5 4.70001 11.125 4.32501 10.6666 4.32501Z" stroke="#4B5563" stroke-width="1.5" stroke-linecap="round" stroke-linejoin="round"/>
<path d="M16.6666 1.66669H15.3333C14.875 1.66669 14.5 2.04169 14.5 2.50002V15C14.5 15.4584 14.875 15.8334 15.3333 15.8334H16.6666C17.125 15.8334 17.5 15.4584 17.5 15V2.50002C17.5 2.04169 17.125 1.66669 16.6666 1.66669Z" stroke="#4B5563" stroke-width="1.5" stroke-linecap="round" stroke-linejoin="round"/>
</svg>
